<?xml version="1.0" standalone="no"?>
<!DOCTYPE svg PUBLIC "-//W3C//DTD SVG 20010904//EN"
 "http://www.w3.org/TR/2001/REC-SVG-20010904/DTD/svg10.dtd">
<svg version="1.0" xmlns="http://www.w3.org/2000/svg"
 width="403.000000pt" height="95.000000pt" viewBox="0 0 403.000000 95.000000"
 preserveAspectRatio="xMidYMid meet">
<metadata>
Created by potrace 1.16, written by Peter Selinger 2001-2019
</metadata>
<g transform="translate(0.000000,95.000000) scale(0.100000,-0.100000)"
fill="#000000" stroke="none">
<path d="M3417 803 c-7 -6 -10 -203 -3 -203 11 0 104 -20 119 -25 15 -7 17 2
17 98 l0 105 -27 10 c-40 15 -98 23 -106 15z"/>
<path d="M3641 799 c-25 -5 -48 -12 -52 -16 -4 -5 -9 -54 -11 -109 -4 -99 -3
-102 17 -94 11 4 41 10 68 14 l47 7 0 105 c0 77 -3 104 -12 103 -7 -1 -33 -5
-57 -10z"/>
<path d="M1059 622 c-18 -16 -38 -50 -49 -82 -14 -40 -24 -56 -39 -58 -15 -2
-21 -11 -21 -29 0 -20 4 -24 20 -20 24 6 35 -29 45 -145 7 -72 9 -78 30 -78
25 0 29 13 41 135 9 95 18 115 49 115 16 0 25 6 25 15 0 11 -12 15 -45 15 -56
0 -61 22 -10 52 23 13 34 26 31 37 -2 9 -7 28 -10 44 -8 34 -27 34 -67 -1z"/>
<path d="M2361 626 l-53 -9 7 -126 c4 -69 10 -157 14 -196 6 -69 6 -70 41 -82
85 -29 190 -6 218 47 17 33 10 161 -13 218 -27 66 -64 56 -134 -36 -19 -24
-35 -41 -38 -39 -2 3 1 55 7 117 7 61 10 113 8 114 -2 1 -27 -2 -57 -8z m133
-182 c13 -5 16 -24 16 -99 0 -107 -7 -118 -72 -113 l-43 3 2 43 c3 58 19 106
50 142 28 33 25 32 47 24z"/>
<path d="M652 600 c-29 -4 -55 -10 -58 -13 -6 -5 19 -81 66 -202 17 -44 35
-92 40 -106 16 -51 31 -70 52 -67 20 3 57 100 144 371 4 12 0 17 -14 17 -24 0
-38 -35 -92 -247 -20 -80 -35 -53 -59 107 -13 83 -24 149 -25 149 0 -1 -25 -5
-54 -9z"/>
<path d="M1866 602 l-59 -3 7 -117 c3 -64 9 -152 12 -194 l7 -78 103 0 104 0
0 31 c0 24 -4 29 -17 25 -40 -11 -121 -17 -126 -9 -2 4 4 78 14 163 11 85 18
162 17 170 -2 12 -16 14 -62 12z"/>
<path d="M2881 495 c-23 -21 -41 -44 -41 -51 0 -8 -7 -14 -16 -14 -13 0 -15 8
-12 41 l4 41 -50 -7 c-64 -8 -68 -11 -62 -43 2 -15 10 -78 17 -139 12 -107 14
-113 35 -113 20 0 24 7 29 48 17 119 38 152 101 152 31 0 31 1 38 56 4 31 5
59 2 61 -2 3 -23 -12 -45 -32z"/>
<path d="M3500 482 c-28 -29 -53 -52 -56 -52 -3 0 -4 18 -2 41 l4 41 -51 -7
c-27 -3 -53 -9 -57 -13 -4 -4 0 -61 7 -127 8 -66 15 -128 15 -137 0 -12 8 -18
24 -18 22 0 26 6 31 48 17 119 38 152 101 152 31 0 31 1 38 56 4 31 4 59 1 62
-3 3 -28 -18 -55 -46z"/>
<path d="M1408 498 c-14 -13 -30 -33 -37 -45 -18 -35 -31 -27 -31 18 l0 41
-47 -7 c-27 -4 -51 -10 -55 -13 -4 -4 -2 -54 3 -112 16 -168 17 -170 42 -170
21 0 24 8 35 72 15 87 46 155 73 163 11 4 22 5 24 3 2 -2 13 -172 15 -225 0
-7 11 -13 24 -13 19 0 26 7 30 27 3 16 10 54 16 85 12 61 46 121 71 126 13 2
17 -12 22 -74 4 -42 7 -97 7 -121 l0 -43 45 0 45 0 0 73 c0 39 -7 103 -15 141
-24 114 -45 122 -117 45 -27 -29 -50 -50 -51 -48 -1 2 -9 24 -17 49 -18 54
-45 63 -82 28z"/>
<path d="M2133 503 c-32 -4 -33 -6 -33 -51 0 -26 5 -91 12 -144 11 -91 14 -98
34 -98 26 0 28 7 44 150 6 52 12 107 15 123 5 29 4 29 -72 20z"/>
<path d="M3018 503 c-20 -5 -23 -22 -8 -55 10 -20 17 -23 56 -19 37 2 50 -1
70 -20 42 -39 32 -49 -51 -49 -62 0 -79 -4 -95 -20 -26 -26 -26 -86 -1 -119
27 -35 83 -22 132 29 21 21 40 36 43 33 3 -4 6 -21 6 -40 0 -30 3 -33 29 -33
28 0 28 1 34 68 15 155 8 191 -43 217 -27 14 -130 19 -172 8z"/>
<path d="M3635 501 c-33 -7 -35 -21 -10 -76 7 -16 25 -59 40 -95 15 -36 33
-80 41 -98 19 -44 18 -58 -8 -82 -14 -13 -35 -20 -61 -20 -31 0 -38 -3 -35
-17 5 -30 82 -30 111 -1 19 19 167 365 167 391 0 4 -8 7 -19 7 -12 0 -21 -9
-24 -27 -9 -43 -57 -177 -67 -187 -15 -15 -19 -6 -37 107 -19 118 -17 116 -98
98z"/>
<path d="M104 461 c-2 -2 -4 -13 -4 -23 0 -17 14 -18 230 -18 l230 0 0 23 0
22 -226 0 c-124 0 -228 -2 -230 -4z"/>
<path d="M102 238 l3 -23 225 0 225 0 3 23 3 22 -231 0 -231 0 3 -22z"/>
</g>
</svg>
